<?xml version="1.0" encoding="UTF-8" standalone="no"?>
<!-- Created with Inkscape (http://www.inkscape.org/) -->

<svg
   xmlns:dc="http://purl.org/dc/elements/1.1/"
   xmlns:cc="http://creativecommons.org/ns#"
   xmlns:rdf="http://www.w3.org/1999/02/22-rdf-syntax-ns#"
   xmlns:svg="http://www.w3.org/2000/svg"
   xmlns="http://www.w3.org/2000/svg"
   xmlns:sodipodi="http://sodipodi.sourceforge.net/DTD/sodipodi-0.dtd"
   xmlns:inkscape="http://www.inkscape.org/namespaces/inkscape"
   width="1488.189"
   height="1052.3622"
   id="svg2"
   version="1.1"
   inkscape:version="0.48.5 r10040"
   sodipodi:docname="dojo-bahia.svg"
   inkscape:export-filename="/home/viniml/Imagens/dojo-bahia.jpg.png"
   inkscape:export-xdpi="90"
   inkscape:export-ydpi="90">
  <defs
     id="defs4" />
  <sodipodi:namedview
     id="base"
     pagecolor="#ffffff"
     bordercolor="#666666"
     borderopacity="1.0"
     inkscape:pageopacity="0.0"
     inkscape:pageshadow="2"
     inkscape:zoom="0.35"
     inkscape:cx="683.97762"
     inkscape:cy="381.34548"
     inkscape:document-units="px"
     inkscape:current-layer="layer1"
     showgrid="false"
     inkscape:window-width="1366"
     inkscape:window-height="721"
     inkscape:window-x="0"
     inkscape:window-y="23"
     inkscape:window-maximized="1" />
  <metadata
     id="metadata7">
    <rdf:RDF>
      <cc:Work
         rdf:about="">
        <dc:format>image/svg+xml</dc:format>
        <dc:type
           rdf:resource="http://purl.org/dc/dcmitype/StillImage" />
        <dc:title></dc:title>
      </cc:Work>
    </rdf:RDF>
  </metadata>
  <g
     inkscape:label="Camada 1"
     inkscape:groupmode="layer"
     id="layer1"
     style="display:inline"
     transform="translate(0,2.2302535e-5)">
    <g
       id="g3135"
       transform="matrix(1.3988078,0,0,1.3988078,-270.81377,-387.45345)">
      <g
         style="fill:#333333"
         transform="matrix(1.2861647,0,0,1.2861647,406.06696,306.96965)"
         id="g3025">
        <g
           style="fill:#333333"
           id="XMLID_169_">
          <path
             style="fill:#333333"
             inkscape:connector-curvature="0"
             id="XMLID_197_"
             d="m 40,380 h 300 c 8.284,0 15,-6.716 15,-15 v -50 c 0,-8.284 -6.716,-15 -15,-15 H 337.086 335 45 40 c -8.284,0 -15,6.716 -15,15 v 50 c 0,8.284 6.716,15 15,15 z" />
          <path
             style="fill:#333333"
             inkscape:connector-curvature="0"
             id="XMLID_221_"
             d="m 40,150 h 25 v 80 h -5 c -8.284,0 -15,6.716 -15,15 v 25 h 290 v -25 c 0,-8.284 -6.716,-15 -15,-15 h -5 v -80 h 25 c 8.284,0 15,-6.716 15,-15 0,-8.284 -6.716,-15 -15,-15 -19.578,0 -36.267,-12.571 -42.441,-30.063 0.812,0.028 1.623,0.063 2.441,0.063 8.284,0 15,-6.716 15,-15 0,-8.284 -6.716,-15 -15,-15 C 275.186,60 255,39.813 255,15 255,6.716 248.284,0 240,0 H 140 c -8.284,0 -15,6.716 -15,15 0,24.813 -20.187,45 -45,45 -8.284,0 -15,6.716 -15,15 0,8.284 6.716,15 15,15 0.817,0 1.627,-0.028 2.438,-0.055 C 76.262,107.433 59.575,120 40,120 c -8.284,0 -15,6.716 -15,15 0,8.284 6.716,15 15,15 z m 215,0 h 30 v 80 h -30 v -80 z m -100,0 h 70 v 80 h -70 v -80 z m -60,0 h 30 v 80 H 95 v -80 z" />
        </g>
        <g
           style="fill:#333333"
           id="g2989" />
        <g
           style="fill:#333333"
           id="g2991" />
        <g
           style="fill:#333333"
           id="g2993" />
        <g
           style="fill:#333333"
           id="g2995" />
        <g
           style="fill:#333333"
           id="g2997" />
        <g
           style="fill:#333333"
           id="g2999" />
        <g
           style="fill:#333333"
           id="g3001" />
        <g
           style="fill:#333333"
           id="g3003" />
        <g
           style="fill:#333333"
           id="g3005" />
        <g
           style="fill:#333333"
           id="g3007" />
        <g
           style="fill:#333333"
           id="g3009" />
        <g
           style="fill:#333333"
           id="g3011" />
        <g
           style="fill:#333333"
           id="g3013" />
        <g
           style="fill:#333333"
           id="g3015" />
        <g
           style="fill:#333333"
           id="g3017" />
      </g>
      <path
         sodipodi:nodetypes="ccccc"
         inkscape:connector-curvature="0"
         id="rect3056-6-2"
         d="m 1123.3494,836.0319 -210.21526,0.24122 -50.05508,-103.78414 211.29174,0.22299 z"
         style="fill:#333333;fill-opacity:1;fill-rule:evenodd;stroke:none" />
      <path
         sodipodi:nodetypes="ccccc"
         inkscape:connector-curvature="0"
         id="rect3056-9"
         d="m 735.95721,692.7383 173.20536,-0.24121 47.37947,103.78413 -172.05222,-0.22299 z"
         style="fill:#4d4d4d;fill-opacity:1;fill-rule:evenodd;stroke:none" />
      <path
         inkscape:connector-curvature="0"
         id="path3077-1"
         d="m 891.28988,796.1535 65.44896,0 -42.96568,40.6887 z"
         style="fill:#1a1a1a;fill-opacity:1;stroke:none" />
      <path
         sodipodi:nodetypes="ccccc"
         inkscape:connector-curvature="0"
         id="rect3056-6-2-7"
         d="m 1046.4602,450.48069 -210.58916,0.24164 -50.14411,-103.96871 211.66756,0.22339 z"
         style="fill:#333333;fill-opacity:1;fill-rule:evenodd;stroke:none" />
      <path
         sodipodi:nodetypes="ccccc"
         inkscape:connector-curvature="0"
         id="rect3056-9-0"
         d="m 658.379,306.93225 173.5134,-0.24165 47.46374,103.96871 -172.35821,-0.22338 z"
         style="fill:#4d4d4d;fill-opacity:1;fill-rule:evenodd;stroke:none" />
      <path
         inkscape:connector-curvature="0"
         id="path3077-1-9"
         d="m 813.98792,410.53137 65.56536,0 -43.04209,40.76106 z"
         style="fill:#1a1a1a;fill-opacity:1;stroke:none" />
    </g>
    <text
       xml:space="preserve"
       style="font-size:268.24499512px;font-style:normal;font-weight:normal;line-height:125%;letter-spacing:0px;word-spacing:0px;fill:#1a1a1a;fill-opacity:1;stroke:none;font-family:Sans"
       x="112.80304"
       y="1015.9084"
       id="text4020"
       sodipodi:linespacing="125%"><tspan
         sodipodi:role="line"
         id="tspan4022"
         x="112.80304"
         y="1015.9084"
         style="font-style:normal;font-variant:normal;font-weight:normal;font-stretch:normal;fill:#1a1a1a;font-family:Katana;-inkscape-font-specification:Katana">DOJO-BAHIA</tspan></text>
  </g>
</svg>
