<?xml version="1.0" encoding="UTF-8" standalone="no"?>
<!-- Created with Inkscape (http://www.inkscape.org/) -->

<svg
   xmlns:dc="http://purl.org/dc/elements/1.1/"
   xmlns:cc="http://creativecommons.org/ns#"
   xmlns:rdf="http://www.w3.org/1999/02/22-rdf-syntax-ns#"
   xmlns:svg="http://www.w3.org/2000/svg"
   xmlns="http://www.w3.org/2000/svg"
   xmlns:sodipodi="http://sodipodi.sourceforge.net/DTD/sodipodi-0.dtd"
   xmlns:inkscape="http://www.inkscape.org/namespaces/inkscape"
   width="1587.4016"
   height="1122.5197"
   id="svg2"
   version="1.1"
   inkscape:version="0.92.1 r15371"
   sodipodi:docname="dojo-bahia.svg"
   inkscape:export-filename="/home/viniml/Imagens/dojo-bahia.jpg.png"
   inkscape:export-xdpi="90"
   inkscape:export-ydpi="90">
  <defs
     id="defs4" />
  <sodipodi:namedview
     id="base"
     pagecolor="#ffffff"
     bordercolor="#666666"
     borderopacity="1.0"
     inkscape:pageopacity="0.0"
     inkscape:pageshadow="2"
     inkscape:zoom="0.35"
     inkscape:cx="792.54905"
     inkscape:cy="489.91691"
     inkscape:document-units="px"
     inkscape:current-layer="layer1"
     showgrid="false"
     inkscape:window-width="1366"
     inkscape:window-height="718"
     inkscape:window-x="0"
     inkscape:window-y="26"
     inkscape:window-maximized="1" />
  <metadata
     id="metadata7">
    <rdf:RDF>
      <cc:Work
         rdf:about="">
        <dc:format>image/svg+xml</dc:format>
        <dc:type
           rdf:resource="http://purl.org/dc/dcmitype/StillImage" />
        <dc:title />
      </cc:Work>
    </rdf:RDF>
  </metadata>
  <g
     inkscape:label="Camada 1"
     inkscape:groupmode="layer"
     id="layer1"
     style="display:inline"
     transform="translate(0,2.3789371e-5)">
    <g
       id="g3135"
       transform="matrix(1.3988078,0,0,1.3988078,-288.86802,-413.28368)">
      <g
         style="fill:#333333"
         transform="matrix(1.2861647,0,0,1.2861647,433.13809,327.43429)"
         id="g3025">
        <g
           style="fill:#333333"
           id="XMLID_169_">
          <path
             style="fill:#333333;stroke-width:1.06666672"
             inkscape:connector-curvature="0"
             id="XMLID_197_"
             d="M 42.666667,405.33333 H 362.66667 c 8.83626,0 16,-7.16373 16,-16 V 336 c 0,-8.83627 -7.16374,-16 -16,-16 H 359.5584 357.33333 48 42.666667 c -8.836267,0 -16,7.16373 -16,16 v 53.33333 c 0,8.83627 7.163733,16 16,16 z" />
          <path
             style="fill:#333333;stroke-width:1.06666672"
             inkscape:connector-curvature="0"
             id="XMLID_221_"
             d="m 42.666667,160 h 26.666666 v 85.33333 H 64 c -8.836267,0 -16,7.16374 -16,16 V 288 h 309.33333 v -26.66667 c 0,-8.83626 -7.16373,-16 -16,-16 H 336 V 160 h 26.66667 c 8.83626,0 16,-7.16373 16,-16 0,-8.83627 -7.16374,-16 -16,-16 -20.8832,0 -38.6848,-13.40907 -45.2704,-32.0672 C 318.2624,95.962667 319.12747,96 320,96 c 8.83627,0 16,-7.163733 16,-16 0,-8.836267 -7.16373,-16 -16,-16 C 293.53173,64 272,42.4672 272,16 272,7.1637333 264.83627,0 256,0 H 149.33333 c -8.83626,0 -16,7.1637333 -16,16 0,26.4672 -21.5328,48 -47.999997,48 -8.836266,0 -16,7.163733 -16,16 0,8.836267 7.163734,16 16,16 C 86.2048,96 87.0688,95.97013 87.933867,95.94133 81.346133,114.5952 63.546667,128 42.666667,128 c -8.836267,0 -16,7.16373 -16,16 0,8.83627 7.163733,16 16,16 z M 272,160 h 32 v 85.33333 h -32 z m -106.66667,0 H 240 v 85.33333 h -74.66667 z m -64,0 h 32 v 85.33333 h -32 z" />
        </g>
        <g
           style="fill:#333333"
           id="g2989" />
        <g
           style="fill:#333333"
           id="g2991" />
        <g
           style="fill:#333333"
           id="g2993" />
        <g
           style="fill:#333333"
           id="g2995" />
        <g
           style="fill:#333333"
           id="g2997" />
        <g
           style="fill:#333333"
           id="g2999" />
        <g
           style="fill:#333333"
           id="g3001" />
        <g
           style="fill:#333333"
           id="g3003" />
        <g
           style="fill:#333333"
           id="g3005" />
        <g
           style="fill:#333333"
           id="g3007" />
        <g
           style="fill:#333333"
           id="g3009" />
        <g
           style="fill:#333333"
           id="g3011" />
        <g
           style="fill:#333333"
           id="g3013" />
        <g
           style="fill:#333333"
           id="g3015" />
        <g
           style="fill:#333333"
           id="g3017" />
      </g>
      <path
         sodipodi:nodetypes="ccccc"
         inkscape:connector-curvature="0"
         id="rect3056-6-2"
         d="m 1198.2394,891.76736 -224.22965,0.2573 -53.39209,-110.70308 225.37784,0.23785 z"
         style="fill:#333333;fill-opacity:1;fill-rule:evenodd;stroke:none;stroke-width:1.06666672" />
      <path
         sodipodi:nodetypes="ccccc"
         inkscape:connector-curvature="0"
         id="rect3056-9"
         d="m 785.02102,738.92085 184.75239,-0.25729 50.53809,110.70307 -183.52236,-0.23785 z"
         style="fill:#4d4d4d;fill-opacity:1;fill-rule:evenodd;stroke:none;stroke-width:1.06666672" />
      <path
         inkscape:connector-curvature="0"
         id="path3077-1"
         d="m 950.70921,849.2304 h 69.81219 l -45.83003,43.40128 z"
         style="fill:#1a1a1a;fill-opacity:1;stroke:none;stroke-width:1.06666672" />
      <path
         sodipodi:nodetypes="ccccc"
         inkscape:connector-curvature="0"
         id="rect3056-6-2-7"
         d="m 1116.2242,480.51274 -224.62842,0.25775 -53.48705,-110.89996 225.77877,0.23828 z"
         style="fill:#333333;fill-opacity:1;fill-rule:evenodd;stroke:none;stroke-width:1.06666672" />
      <path
         sodipodi:nodetypes="ccccc"
         inkscape:connector-curvature="0"
         id="rect3056-9-0"
         d="m 702.27093,327.3944 185.08096,-0.25776 50.62799,110.89996 -183.84875,-0.23827 z"
         style="fill:#4d4d4d;fill-opacity:1;fill-rule:evenodd;stroke:none;stroke-width:1.06666672" />
      <path
         inkscape:connector-curvature="0"
         id="path3077-1-9"
         d="m 868.25378,437.90013 h 69.93639 l -45.91157,43.47846 z"
         style="fill:#1a1a1a;fill-opacity:1;stroke:none;stroke-width:1.06666672" />
    </g>
    <g
       aria-label="DOJO-BAHIA"
       style="font-style:normal;font-weight:normal;font-size:12.80000019px;line-height:0%;font-family:sans-serif;letter-spacing:0px;word-spacing:0px;fill:#1a1a1a;fill-opacity:1;stroke:none;stroke-width:1.06666672"
       id="text4020">
      <path
         d="m 123.18452,1056.1673 q 0,3.1474 1.14451,8.0116 1.14452,4.5781 3.14741,8.87 2.28903,4.2919 5.15031,7.4393 3.1474,3.1474 6.86707,3.1474 h 54.07819 q 0.57225,0 2.28902,-0.8584 1.71677,-0.8583 3.71967,-2.0029 2.00289,-1.1445 3.71966,-2.289 2.0029,-1.1445 2.86128,-1.7168 4.86418,-4.2919 11.15899,-10.5867 6.29482,-6.5809 14.3064,-16.5954 l 3.14741,-7.1532 q 3.71966,-9.1561 8.29771,-20.8874 4.86418,-11.7312 7.72546,-24.60696 2.86128,-12.87576 4.29192,-25.17926 1.43064,-12.30351 1.43064,-22.31799 -4.0058,-6.29481 -6.00869,-8.86997 -1.71677,-2.57515 -3.71967,-4.00579 -1.71676,-2.28902 -3.1474,-4.86417 -1.14452,-2.57515 -2.0029,-4.29192 -0.28613,-1.14451 -0.85838,-2.57515 -0.57226,-1.71677 -1.43064,-3.14741 -0.57226,-1.71677 -1.14452,-2.86128 -0.28612,-1.14451 -0.28612,-1.14451 -4.0058,-5.43644 -14.3064,-9.44223 -10.01448,-4.00579 -21.74573,-6.29481 -11.44512,-2.57516 -22.60411,-3.71967 -10.87287,-1.14451 -16.88155,-1.14451 -3.43354,0 -9.1561,-0.28613 -5.43643,-0.28613 -10.87286,0.57226 -5.15031,0.57225 -9.1561,3.43353 -3.71966,2.57516 -3.71966,8.58384 0,2.57516 0.85838,4.29192 1.14451,1.43064 2.28903,2.86128 1.43064,1.14452 2.57515,2.57516 1.14451,1.14451 1.14451,3.43353 v 1.71677 q -0.57226,1.14451 -1.71677,6.86707 -1.14451,5.43643 -2.28902,12.01738 -0.85839,6.29481 -1.71677,12.01737 -0.85838,5.43643 -0.85838,6.29482 -0.85839,9.44222 -2.0029,21.74573 -1.14451,12.3035 -2.28902,25.4654 -0.85839,12.8757 -1.71677,25.4654 -0.57226,12.3035 -0.57226,22.0318 z m 32.04634,-11.4451 q 0,-10.8729 1.43064,-23.4625 1.43064,-12.5896 4.00579,-25.17925 2.57515,-12.87575 6.00869,-25.17926 3.43353,-12.3035 7.72545,-22.89024 1.71677,-5.43643 2.28903,-6.29481 0.85838,-1.14452 5.43643,-1.14452 6.00869,0 10.87286,2.57516 5.15031,2.28902 8.58384,6.58094 3.71967,4.29192 5.72256,9.72835 2.0029,5.43643 2.0029,11.44512 0,14.59253 -2.86128,30.61571 -2.57515,16.0232 -6.58095,29.7573 -2.28902,7.1532 -6.29481,11.159 -4.00579,4.0058 -9.44223,6.0087 -5.1503,2.0029 -11.44512,2.5751 -6.29481,0.2862 -12.87576,0.2862 -2.57515,0 -3.71966,-2.0029 -0.85838,-2.2891 -0.85838,-4.5781 z"
         style="font-style:normal;font-variant:normal;font-weight:normal;font-stretch:normal;font-size:286.12799072px;line-height:1.25;font-family:Katana;-inkscape-font-specification:Katana;fill:#1a1a1a;stroke-width:1.06666672"
         id="path35" />
      <path
         d="m 268.21117,1058.4564 q 1.71677,10.3006 6.58095,18.026 4.86417,7.4393 14.87865,7.4393 25.75152,0 42.34695,-8.0115 16.59542,-8.2977 27.18216,-22.8903 10.58673,-14.8786 17.16767,-34.9076 6.58095,-20.31508 12.58964,-44.34983 0,-0.57225 0.57225,-2.00289 0.85839,-1.71677 1.14451,-3.43354 0.57226,-1.71677 0.85839,-3.14741 0.57225,-1.71677 0.57225,-6.86707 0,-2.57515 -0.28612,-6.86707 0,-4.57805 -0.57226,-10.01448 -0.28613,-5.43643 -1.14451,-11.15899 -0.85839,-5.72256 -2.28903,-10.58674 -3.1474,-10.30061 -9.72835,-17.16768 -6.29481,-6.86707 -17.73993,-6.86707 -14.02027,0 -26.32378,6.58094 -12.01737,6.29482 -22.31798,16.88156 -10.30061,10.58673 -18.59832,24.607 -8.01158,14.02027 -13.73414,29.18506 -5.43644,15.16478 -8.58384,30.61571 -2.86128,15.1648 -2.86128,28.6128 v 5.4364 q 0,3.4335 0,7.7255 0.28612,4.2919 0.28612,8.0116 z m 40.91631,-50.9308 q 0,-3.7197 0.57225,-10.87289 0.85839,-7.1532 2.57515,-15.73704 1.71677,-8.58384 4.0058,-17.73993 2.57515,-9.1561 6.00868,-16.3093 3.43354,-7.43933 7.72546,-12.01738 4.29192,-4.86417 9.72835,-4.86417 0.28613,0 0.85839,0.28613 0.85838,0 0.85838,0 0.57226,0.85838 1.71677,3.43353 1.43064,2.28903 1.43064,3.14741 v 6.00869 q 0,3.71966 0,8.29771 0.28613,4.57805 0.28613,8.58384 v 6.00869 q 0,10.30061 -0.85839,22.89024 -0.57225,12.58967 -3.14741,25.17927 -2.57515,12.3035 -7.72545,23.4625 -5.15031,11.159 -14.02027,18.3122 -6.58095,-12.0174 -8.29772,-23.4625 -1.71676,-11.7313 -1.71676,-24.607 z"
         style="font-style:normal;font-variant:normal;font-weight:normal;font-stretch:normal;font-size:286.12799072px;line-height:1.25;font-family:Katana;-inkscape-font-specification:Katana;fill:#1a1a1a;stroke-width:1.06666672"
         id="path37" />
      <path
         d="m 403.16523,1012.1036 q 0,9.4422 1.14452,22.0319 1.14451,12.3035 5.1503,23.4625 4.00579,11.159 11.73125,18.8844 8.01158,7.4393 21.4596,7.4393 8.58384,0 15.45091,-2.8612 7.1532,-3.1474 12.87576,-8.0116 6.00869,-4.8642 10.87286,-11.4451 5.15031,-6.581 9.72835,-13.4481 4.29192,-6.5809 8.01159,-12.8757 3.71966,-6.2948 6.86707,-13.448 3.14741,-7.4394 5.72256,-16.3093 2.57515,-9.15612 4.57805,-21.17349 l 3.71966,-90.13032 q -10.87286,1.14451 -20.88734,2.57515 -4.86418,0.57226 -13.16189,2.86128 -8.01158,2.28903 -19.4567,6.00869 1.43064,10.01448 2.28902,20.02896 1.14451,10.01448 2.28902,20.02896 1.14452,10.01448 1.43064,20.60121 0.28613,10.58674 -0.28612,22.60412 -0.85839,23.17634 -8.29772,42.06084 -6.86707,18.5983 -12.58963,28.6128 -6.00868,2.289 -11.44512,1.1445 -2.28902,-1.4307 -2.86128,-2.8613 -0.57225,-1.7168 -1.43064,-4.2919 -0.57225,-3.1474 -0.85838,-7.7255 -0.28613,-4.8642 -0.28613,-9.7283 v -7.7255 q 0,-13.7341 1.71677,-22.0318 1.71677,-8.58388 -8.58384,-11.15903 -9.1561,-2.57515 -17.16768,-1.14451 -6.86707,1.14451 -7.43933,7.43934 -0.28613,1.4306 -0.28613,2.8613 0,1.4306 0,2.8612 z"
         style="font-style:normal;font-variant:normal;font-weight:normal;font-stretch:normal;font-size:286.12799072px;line-height:1.25;font-family:Katana;-inkscape-font-specification:Katana;fill:#1a1a1a;stroke-width:1.06666672"
         id="path39" />
      <path
         d="m 530.30891,1058.4564 q 1.71676,10.3006 6.58094,18.026 4.86418,7.4393 14.87866,7.4393 25.75152,0 42.34694,-8.0115 16.59542,-8.2977 27.18216,-22.8903 10.58673,-14.8786 17.16768,-34.9076 6.58094,-20.31508 12.58963,-44.34983 0,-0.57225 0.57225,-2.00289 0.85839,-1.71677 1.14452,-3.43354 0.57225,-1.71677 0.85838,-3.14741 0.57226,-1.71677 0.57226,-6.86707 0,-2.57515 -0.28613,-6.86707 0,-4.57805 -0.57226,-10.01448 -0.28613,-5.43643 -1.14451,-11.15899 -0.85838,-5.72256 -2.28902,-10.58674 -3.14741,-10.30061 -9.72835,-17.16768 -6.29482,-6.86707 -17.73994,-6.86707 -14.02027,0 -26.32378,6.58094 -12.01737,6.29482 -22.31798,16.88156 -10.30061,10.58673 -18.59832,24.607 -8.01158,14.02027 -13.73414,29.18506 -5.43643,15.16478 -8.58384,30.61571 -2.86128,15.1648 -2.86128,28.6128 v 5.4364 q 0,3.4335 0,7.7255 0.28613,4.2919 0.28613,8.0116 z m 40.9163,-50.9308 q 0,-3.7197 0.57226,-10.87289 0.85838,-7.1532 2.57515,-15.73704 1.71677,-8.58384 4.00579,-17.73993 2.57515,-9.1561 6.00869,-16.3093 3.43353,-7.43933 7.72545,-12.01738 4.29192,-4.86417 9.72835,-4.86417 0.28613,0 0.85839,0.28613 0.85838,0 0.85838,0 0.57226,0.85838 1.71677,3.43353 1.43064,2.28903 1.43064,3.14741 v 6.00869 q 0,3.71966 0,8.29771 0.28613,4.57805 0.28613,8.58384 v 6.00869 q 0,10.30061 -0.85839,22.89024 -0.57225,12.58967 -3.1474,25.17927 -2.57516,12.3035 -7.72546,23.4625 -5.1503,11.159 -14.02027,18.3122 -6.58094,-12.0174 -8.29771,-23.4625 -1.71677,-11.7313 -1.71677,-24.607 z"
         style="font-style:normal;font-variant:normal;font-weight:normal;font-stretch:normal;font-size:286.12799072px;line-height:1.25;font-family:Katana;-inkscape-font-specification:Katana;fill:#1a1a1a;stroke-width:1.06666672"
         id="path41" />
      <path
         d="m 664.40457,992.36079 q 0,8.58381 7.72545,14.02031 8.01159,5.1503 18.59832,8.0115 10.58674,2.5752 21.17347,3.7197 10.58674,0.8584 16.3093,0.8584 10.01448,0 15.45091,-1.7168 5.43643,-2.0029 8.58384,-5.7225 3.43354,-4.0058 5.43643,-10.3006 2.0029,-6.29486 5.15031,-15.16482 2.00289,-5.43644 3.14741,-8.58384 1.43063,-3.43354 2.57515,-6.29482 1.14451,-2.86128 2.00289,-6.00869 0.85839,-3.43353 1.71677,-8.58384 -12.87576,7.43933 -29.18505,13.44802 -16.02317,5.72256 -32.33247,7.43933 -13.44801,1.43064 -36.33825,-2.57516 l -6.29482,8.86997 z"
         style="font-style:normal;font-variant:normal;font-weight:normal;font-stretch:normal;font-size:286.12799072px;line-height:1.25;font-family:Katana;-inkscape-font-specification:Katana;fill:#1a1a1a;stroke-width:1.06666672"
         id="path43" />
      <path
         d="m 787.93586,1077.0547 q 3.43354,3.4335 6.00869,5.1503 2.57515,1.7167 6.86707,1.7167 h 12.3035 q 4.86418,0 11.73125,0 7.1532,0 16.3093,-0.2861 9.15609,-0.2861 16.30929,-0.2861 7.43933,0 13.16189,0 h 16.30929 15.45092 l 31.7602,-24.3209 v -1.1445 q 0,-6.5809 -3.71966,-11.4451 -3.71966,-4.8642 -9.44222,-8.87 -3.14741,-2.5751 -6.58095,-4.578 -3.43353,-2.2891 -8.01158,-5.7226 -4.29192,-3.7197 -10.01448,-9.7283 -5.72256,-6.0087 -13.44802,-16.0232 0,0 4.00579,-4.86419 4.86418,-5.43643 12.87576,-14.02027 8.29772,-8.58384 14.3064,-18.31219 6.29482,-9.72835 10.01448,-20.02896 4.0058,-10.58674 9.44223,-22.89024 l 1.14451,-12.01738 q -16.59542,-5.43643 -36.91051,-9.15609 -20.31509,-3.71967 -45.49435,-5.72256 -6.29482,0 -14.59253,1.14451 -8.29771,1.14451 -16.88155,3.43354 -8.29771,2.28902 -15.45091,6.00868 -7.1532,3.71967 -11.15899,9.1561 -3.14741,18.88445 -4.57805,37.76889 -1.14451,18.88445 -1.71677,37.7689 -0.28613,18.88446 -0.28613,37.76886 0.28613,18.8845 0.28613,37.7689 z m 56.65334,-24.0348 h -24.32088 q -4.00579,-5.7225 0.85839,-28.6128 4.86417,-23.1763 10.58673,-20.8873 6.00869,2.289 23.4625,17.1677 1.71677,2.289 3.14741,4.2919 1.43064,1.7167 3.1474,4.2919 1.71677,2.289 4.57805,5.7226 2.86128,3.1474 7.72546,8.0115 -9.1561,10.0145 -29.18506,10.0145 z m 17.73994,-128.75757 19.17057,4.86418 -1.43064,12.58963 q -3.71966,5.43643 -8.29771,10.3006 -4.29192,4.86418 -9.15609,9.44223 l -32.04634,8.29771 q 0.57226,-12.3035 2.57515,-21.17347 2.28903,-9.1561 5.15031,-19.4567 4.86417,-3.43354 10.01448,-4.57805 5.1503,-1.14451 14.02027,-0.28613 z"
         style="font-style:normal;font-variant:normal;font-weight:normal;font-stretch:normal;font-size:286.12799072px;line-height:1.25;font-family:Katana;-inkscape-font-specification:Katana;fill:#1a1a1a;stroke-width:1.06666672"
         id="path45" />
      <path
         d="m 991.02414,1030.9881 h 33.47696 q 4.5781,0 7.1532,2.5751 2.8613,2.289 4.0058,6.2948 1.4307,4.0058 1.7168,8.87 0.2861,4.8642 0.2861,10.0145 0,5.1503 0.2861,10.3006 0.5723,4.8642 2.2891,8.87 1.7167,3.7196 4.8641,6.0086 3.1474,2.5752 8.2977,2.5752 8.0116,0 13.4481,-2.289 5.7225,-2.0029 14.8786,-7.1532 0,-1.7168 0,-6.2948 0.2861,-4.5781 0.2861,-6.2949 0,-2.289 -1.7167,-11.1589 -1.4307,-9.1561 -4.2919,-22.0319 -2.8613,-12.8758 -6.8671,-28.6128 -4.0058,-15.73704 -8.5839,-31.76021 -4.578,-16.30929 -9.7283,-30.90182 -5.1503,-14.87866 -10.5867,-27.18216 -5.1503,-11.44512 -9.1561,-14.59253 -4.0058,-3.14741 -11.7313,-4.29192 -3.7196,1.14451 -7.1532,2.0029 -3.1474,0.57225 -6.0087,2.57515 -2.8613,2.0029 -6.29479,5.43643 -3.14741,3.43354 -4.00579,4.86418 -11.15899,18.59832 -20.60122,39.19953 -9.15609,20.60122 -16.02316,42.06082 -6.58095,21.45963 -10.30061,43.77753 -3.71966,22.0319 -3.71966,43.7776 0.57225,0 3.71966,1.7168 3.14741,1.7168 11.73125,0.5723 6.86707,0 12.01737,-1.4307 5.15031,-1.4306 13.44802,-4.578 l 4.86417,-3.4336 z m 18.02606,-96.99742 q 4.2919,4.29192 7.1532,10.30061 3.1474,5.72256 5.1503,12.3035 2.0029,6.29482 2.8613,12.58963 1.1445,6.29482 1.1445,11.159 0,2.28902 -2.5751,4.00579 -2.2891,1.43064 -6.0087,2.57515 -3.4336,0.85838 -8.0116,1.43064 -4.2919,0.28613 -8.2977,0.28613 h -8.58387 q 0,-3.43354 1.14451,-12.01738 1.43064,-8.58384 3.71966,-17.45381 2.28903,-9.15609 5.4364,-16.59542 3.1474,-7.43933 6.8671,-8.58384 z"
         style="font-style:normal;font-variant:normal;font-weight:normal;font-stretch:normal;font-size:286.12799072px;line-height:1.25;font-family:Katana;-inkscape-font-specification:Katana;fill:#1a1a1a;stroke-width:1.06666672"
         id="path47" />
      <path
         d="m 1186.6686,1068.4708 -3.1474,-66.0955 q -8.8699,0.5722 -14.5925,0.8584 -5.7226,0.2861 -8.5838,0.2861 h -8.5839 q 2.0029,5.1503 2.5752,23.7486 0.8584,18.5983 0.8584,37.1966 v 12.3035 q -3.4336,3.1475 -6.0087,4.5781 -2.5752,1.4306 -6.581,1.4306 -4.8642,0 -7.7254,-4.2919 -2.8613,-4.578 -4.8642,-8.0116 -3.7197,-22.318 -6.8671,-40.6301 -3.1474,-18.5984 -8.2977,-35.19378 -3.4335,-17.16768 -6.0087,-28.04055 -2.289,-11.15899 -3.1474,-15.73704 -1.1445,-4.86417 -3.1474,-12.58963 -1.7168,-8.01158 -4.578,-18.59832 -1.1446,-4.57805 -2.5752,-7.72545 -1.1445,-3.14741 -2.289,-5.72256 -0.8584,-2.57516 -1.4307,-5.15031 -0.5722,-2.86128 -0.5722,-6.86707 6.2948,0 14.5925,0.85838 8.2977,0.85839 16.5954,3.14741 8.2977,2.28903 15.4509,6.00869 7.1532,3.71966 11.159,9.44222 1.4307,9.1561 1.7168,23.17637 0.5723,14.02027 -0.5723,32.33246 h 36.0522 q 3.4335,-36.91051 6.867,-55.50883 3.7197,-5.43643 10.8729,-9.15609 7.1532,-4.00579 15.4509,-6.29482 8.5839,-2.28902 16.8816,-3.14741 8.5838,-1.14451 14.5925,-1.14451 0,4.00579 -0.5723,6.86707 -0.5722,2.57516 -1.7167,5.43644 -0.8584,2.57515 -2.289,5.72256 -1.1446,3.1474 -2.5752,7.72545 -5.7226,21.17347 -10.3006,39.19954 -4.2919,17.73993 -8.0116,35.47987 -3.4335,17.45381 -6.8671,36.05211 -3.1474,18.5983 -6.5809,40.9163 -2.289,3.4336 -5.1503,8.0116 -2.8613,4.578 -7.4393,4.578 -4.5781,0 -12.5897,-15.4509 z"
         style="font-style:normal;font-variant:normal;font-weight:normal;font-stretch:normal;font-size:286.12799072px;line-height:1.25;font-family:Katana;-inkscape-font-specification:Katana;fill:#1a1a1a;stroke-width:1.06666672"
         id="path49" />
      <path
         d="m 1262.734,1077.3408 q 3.4336,3.4335 6.0087,5.1503 2.5752,1.4306 6.581,1.4306 4.8641,0 7.7254,-4.578 2.8613,-4.578 5.1503,-8.0116 3.4336,-22.318 6.581,-40.9163 3.4335,-18.5983 6.867,-36.05211 3.7197,-17.73994 8.0116,-35.47987 4.5781,-18.02607 10.3006,-39.19954 1.1445,-4.86417 2.2891,-8.01158 1.4306,-3.14741 2.289,-5.72256 1.1445,-2.57515 1.7167,-5.15031 0.5723,-2.86128 0.5723,-6.86707 -6.2948,0 -14.5925,1.14451 -8.2977,0.85839 -16.5954,3.14741 -8.2978,2.28903 -15.451,6.29482 -7.1532,3.71966 -11.1589,9.15609 -3.1475,18.59832 -4.5781,37.48277 -1.1445,18.88445 -1.7168,38.05502 -0.2861,19.17062 -0.2861,38.34112 0.2861,18.8845 0.2861,37.7689 z"
         style="font-style:normal;font-variant:normal;font-weight:normal;font-stretch:normal;font-size:286.12799072px;line-height:1.25;font-family:Katana;-inkscape-font-specification:Katana;fill:#1a1a1a;stroke-width:1.06666672"
         id="path51" />
      <path
         d="m 1384.4501,1030.9881 h 33.477 q 4.578,0 7.1532,2.5751 2.8613,2.289 4.0058,6.2948 1.4306,4.0058 1.7167,8.87 0.2862,4.8642 0.2862,10.0145 0,5.1503 0.2861,10.3006 0.5723,4.8642 2.289,8.87 1.7168,3.7196 4.8642,6.0086 3.1474,2.5752 8.2977,2.5752 8.0116,0 13.448,-2.289 5.7226,-2.0029 14.8787,-7.1532 0,-1.7168 0,-6.2948 0.2861,-4.5781 0.2861,-6.2949 0,-2.289 -1.7168,-11.1589 -1.4306,-9.1561 -4.2919,-22.0319 -2.8613,-12.8758 -6.8671,-28.6128 -4.0057,-15.73704 -8.5838,-31.76021 -4.578,-16.30929 -9.7283,-30.90182 -5.1503,-14.87866 -10.5868,-27.18216 -5.1503,-11.44512 -9.1561,-14.59253 -4.0058,-3.14741 -11.7312,-4.29192 -3.7197,1.14451 -7.1532,2.0029 -3.1474,0.57225 -6.0087,2.57515 -2.8613,2.0029 -6.2948,5.43643 -3.1474,3.43354 -4.0058,4.86418 -11.159,18.59832 -20.6012,39.19953 -9.1561,20.60122 -16.0232,42.06082 -6.5809,21.45963 -10.3006,43.77753 -3.7197,22.0319 -3.7197,43.7776 0.5723,0 3.7197,1.7168 3.1474,1.7168 11.7312,0.5723 6.8671,0 12.0174,-1.4307 5.1503,-1.4306 13.448,-4.578 l 4.8642,-3.4336 z m 18.0261,-96.99742 q 4.2919,4.29192 7.1532,10.30061 3.1474,5.72256 5.1503,12.3035 2.0029,6.29482 2.8613,12.58963 1.1445,6.29482 1.1445,11.159 0,2.28902 -2.5752,4.00579 -2.289,1.43064 -6.0087,2.57515 -3.4335,0.85838 -8.0116,1.43064 -4.2919,0.28613 -8.2977,0.28613 h -8.5838 q 0,-3.43354 1.1445,-12.01738 1.4306,-8.58384 3.7197,-17.45381 2.289,-9.15609 5.4364,-16.59542 3.1474,-7.43933 6.8671,-8.58384 z"
         style="font-style:normal;font-variant:normal;font-weight:normal;font-stretch:normal;font-size:286.12799072px;line-height:1.25;font-family:Katana;-inkscape-font-specification:Katana;fill:#1a1a1a;stroke-width:1.06666672"
         id="path53" />
    </g>
  </g>
</svg>
